<svg width="67" height="66" viewBox="0 0 67 66" fill="none" xmlns="http://www.w3.org/2000/svg">
<path d="M25.7671 62.5652H25.6554C20.9654 62.5377 17.6154 58.3852 15.2425 54.7827C9.18458 45.6252 7.95625 34.1027 12.3392 27.4202C15.2704 22.9377 20.0163 20.1602 24.7063 20.1602C27.135 20.1602 29.0333 20.8202 30.7083 21.4252C32.0483 21.8927 33.1929 22.3052 34.3933 22.3052C35.4542 22.3052 36.3754 21.9477 37.5479 21.5077C39.1671 20.9027 41.1492 20.1602 44.0246 20.1602C48.1563 20.1602 52.3996 22.3327 55.3587 26.0177C55.548 26.2512 55.6834 26.5224 55.7554 26.8125C55.8275 27.1027 55.8346 27.4048 55.7761 27.6979C55.7177 27.991 55.5951 28.2681 55.417 28.5098C55.2388 28.7516 55.0094 28.9522 54.7446 29.0977C51.59 30.8027 49.8592 33.9102 50.1104 37.4302C50.3617 41.0052 52.595 44.0302 55.945 45.2677C56.4754 45.4602 56.9221 45.8727 57.1454 46.3952C57.3687 46.9177 57.3687 47.5227 57.1175 48.0177C55.8892 50.7127 55.275 51.9502 53.6838 54.3702C51.0317 58.3852 47.6817 62.5102 43.1033 62.5652C41.1213 62.5652 39.7812 61.9877 38.6087 61.4377C37.4363 60.9152 36.2917 60.5027 34.4771 60.4477C32.5229 60.4477 31.49 60.9152 30.2896 61.4377C29.0613 61.9877 27.7212 62.5652 25.7671 62.5652ZM24.7063 24.2852C21.4121 24.2852 18.0342 26.3477 15.8567 29.6477C12.8975 34.1577 12.9254 43.7002 18.76 52.5277C20.5746 55.2777 23.0033 58.4127 25.7113 58.4402C26.7162 58.4127 27.47 58.1377 28.5029 57.6977C29.8708 57.0927 31.5737 56.3502 34.3933 56.3227C37.1571 56.2677 38.9437 57.0652 40.3117 57.6977C41.3167 58.1652 41.9867 58.4677 43.0196 58.4402C45.6437 58.4127 48.1842 55.0577 50.1383 52.1427C51.1712 50.5752 51.7575 49.5852 52.3996 48.1827C50.5295 47.0989 48.9583 45.5791 47.8241 43.757C46.6899 41.9348 46.0275 39.8661 45.895 37.7327C45.5879 33.5252 47.3188 29.5927 50.5013 26.9802C48.5471 25.2752 46.23 24.3127 43.9967 24.3127C41.9029 24.3127 40.5071 24.8352 39.0275 25.3852C37.6317 25.9077 36.18 26.4577 34.3654 26.4577C32.4392 26.4577 30.8479 25.8802 29.2846 25.3577C27.805 24.7802 26.3813 24.2852 24.7063 24.2852ZM32.9975 19.6102H32.7183C32.2394 19.5937 31.7808 19.4151 31.4198 19.1046C31.0588 18.7941 30.8174 18.3705 30.7363 17.9052C30.15 14.7977 31.2667 11.2227 33.6954 8.30774C35.9287 5.64024 39.6138 3.66024 42.88 3.44024C44.0246 3.38524 44.9458 4.12774 45.0854 5.20024C45.56 8.41774 44.5271 11.9377 42.21 14.8802C39.9487 17.7677 36.3475 19.6102 32.9975 19.6102ZM40.8979 8.11524C39.3904 8.72024 37.9108 9.73774 36.9338 10.9202C36.0125 12.0202 35.1471 13.5602 34.8679 15.1552C36.3754 14.6602 37.8829 13.6702 38.9158 12.3502C39.4742 11.6627 40.535 10.0677 40.8979 8.11524Z" fill="#66442C"/>
</svg>
